<svg xmlns="http://www.w3.org/2000/svg" width="22" height="12" viewBox="0 0 22 12">
    <path fill="#9B9999" fill-rule="evenodd" stroke="#979797" stroke-width=".3" d="M15.5 8a1.5 1.5 0 1 1 .001-3.001A1.5 1.5 0 0 1 15.5 8m0-4A2.503 2.503 0 0 0 13 6.5C13 7.878 14.122 9 15.5 9S18 7.878 18 6.5 16.878 4 15.5 4m4.447 2.272L18 9.641a.637.637 0 0 1-.57.359H2.643A.656.656 0 0 1 2 9.333V2.667C2 2.299 2.288 2 2.643 2h14.786c.24 0 .459.137.588.391l1.91 3.302a.692.692 0 0 1 .02.579m-1.035-4.266A1.868 1.868 0 0 0 17.25 1H2.875A1.877 1.877 0 0 0 1 2.875v6.25C1 10.159 1.841 11 2.875 11H17.25c.703 0 1.341-.388 1.646-.977l1.894-3.16C20.927 6.597 21 6.3 21 6c0-.3-.074-.6-.23-.899l-1.858-3.095z"/>
</svg>
