<svg xmlns="http://www.w3.org/2000/svg" xmlns:xlink="http://www.w3.org/1999/xlink" width="138" height="49" viewBox="0 0 138 49">
    <defs>
        <path id="a" d="M0 .003h45.917V49H0z"/>
        <path id="c" d="M.05.057h59.871V27H.051z"/>
    </defs>
    <g fill="none" fill-rule="evenodd">
        <g>
            <mask id="b" fill="#fff">
                <use xlink:href="#a"/>
            </mask>
            <path fill="#786154" d="M20.063 2.69c.729 0 1.32-.601 1.32-1.343S20.792.003 20.063.003c-.729 0-1.32.602-1.32 1.344 0 .742.591 1.343 1.32 1.343m0 46.293c3.612-.086 5.892-.484 7.38-1.039.446-.16.793-.343.986-.555a.643.643 0 0 0 .174-.368c0-.077-.003-.056-.008-.084l-.001-.004a.469.469 0 0 0-.143-.257l-.002-.002-.001-.001a1.267 1.267 0 0 0-.214-.185l-.018-.015c-.127-.143-.272-.256-.377-.37a1.297 1.297 0 0 1-.147-.292c-.01-.26.291-.621 1.303-1.302 3.989-2.993 4.566-6.563 5.061-11.18 1.84-.54 3.176-1.094 4.961-2.083a19.458 19.458 0 0 0 3.144-2.155c1.324-1.116 2.19-2.132 2.962-3.721 2.384-4.91-.566-8.834-9.297-8.573-2.044.062-3.792.334-5.776.722-3.284.644-6.603 1.192-9.987 1.552-.77.083-1.542.155-2.317.217-2.24.177-5.566.47-7.773.15-6.177-.896-6.599-7.701 2.939-5.16 2.375.566 4.756 1.057 7.15 1.366 1.806.233 3.618.363 5.443.343 2.17-.022 4.192-.112 6.153-1.155 2.874-1.528 2.607-3.816-2-4.074-5.01-.08-8.513-.56-9.595-2.03-.46-.625-.482-1.43 0-2.457.518-1.105 1.618-2.468 3.39-4.148-.463.349-2.048 1.466-3.39 2.78-.972.953-1.815 2.009-2.01 2.951-.121.985.608 1.771 2.01 2.4 1.529.684 3.858 1.182 6.761 1.546 4.666.511 4.022 2.1 1.105 2.64-2.785.518-5.403.38-7.866-.03-2.164-.358-4.209-.924-6.145-1.436-8.434-2.79-12.062-.25-11.33 2.735.937 3.824 5.845 4.62 8.982 4.724 2.325.078 5.14-.1 8.493-.5 2.332-.278 4.924-.663 7.792-1.143 3.338-.559 8.177-1.272 11.412-.304 6.748 2.02 5.125 8.941-1.725 12.685-1.16.635-1.727.84-3.4 1.463.165-3.156.068-5.623-.28-6.607-.43-1.216-1.088-1.874-1.91-2.228-.79-.34-1.889-.535-2.724-.643-1.983-.257-5.43-.47-9.165-.556-5.967-.138-12.679.045-15.367.884a5.348 5.348 0 0 0-1.502.634C1.342 25.217.267 26.85.068 28.73c-.583 5.495 2.697 9.75 6.537 13.077 1.742 1.504 3.348 2.972 2.627 4.22-.24.414-.646.568-.73.911a.367.367 0 0 0 .047.284v.001c.007.011.011.022.018.032.587.982 5.48 1.745 9.983 1.745.53 0 1.032-.005 1.513-.017" mask="url(#b)"/>
        </g>
        <path fill="#FFF" d="M23.06 43.066c.161.184.327.366.5.54a24.215 24.215 0 0 1-.5-.901c-.668-1.096-1.587-3.78-1.587-3.78-1.403-4.432-1.415-9.062-.848-13.743-1.674 3.007-1.886 10.338.848 15.533.967 1.593 1.587 2.35 1.587 2.35m-1.587 1.898c-4.158.273-8.774-.987-12.64-3.48-3.298-2.128-7.127-6.046-7.699-10.163-.407-2.923.04-5.366 2.376-6.745.711-.407 1.127-.545 1.68-.545.304 0 .649.042 1.107.103 2.394.32 6.62.533 11.436.533 1.298 0 2.552-.016 3.74-.045l.718-.019c.295-.009.584-.018.87-.029a93.425 93.425 0 0 0 3.865-.212c.892-.07 1.671-.15 2.315-.237.41-.056.73-.124 1.042-.124.339 0 .67.08 1.1.342.51.31.935.83 1.228 1.655.51 1.431.488 5.018.115 8.115-.408 3.387-1.063 5.793-3.764 8.064-.625.527-1.307.975-2.036 1.35 0 0-2.48 1.303-5.453 1.437m1.587-9.038c1.035.49 2.476.669 3.866.59 2.04-.118 3.972-.788 4.367-1.837a11.482 11.482 0 0 1-4.367 1.229c-1.809.164-3.866-.182-3.866-.182a19.367 19.367 0 0 1-.5-.084c.153.104.32.198.5.284"/>
        <g transform="translate(78 22)">
            <mask id="d" fill="#fff">
                <use xlink:href="#c"/>
            </mask>
            <path fill="#006496" d="M59.921 26.739V22.56c-2.857 0-3.835-.84-3.835-3.823V12.33h3.835V8.153h-3.835v-6.53h-4.219v6.53h-3.11v4.178h3.11v6.363c0 2.006.19 3.959 1.463 5.578 1.321 1.647 3.288 2.467 5.909 2.467h.682zm-13.21 0v-10.23c0-1.421-.12-2.553-.362-3.394-.241-.842-.689-1.654-1.349-2.438-1.512-1.84-3.64-2.785-5.98-2.785-2.342 0-4.526.972-5.98 2.872-1.325 1.656-1.712 3.336-1.712 5.441V26.74h4.219v-9.315c0-1.874.035-3.958 1.882-4.94 1.039-.546 2.218-.562 3.245.021.505.29.888.668 1.144 1.132.656 1.225.674 2.73.674 4.092v9.01h4.219zM24.553.057c-1.432 0-2.6 1.193-2.6 2.655 0 1.455 1.12 2.655 2.557 2.655 1.426 0 2.642-1.186 2.642-2.655 0-1.518-1.112-2.655-2.599-2.655zm-2.088 26.682h4.218V8.153h-4.218v18.586zM9.532 12.07c2.1 0 4.005 1.368 4.815 3.33a5.383 5.383 0 0 1-1.143 5.833c-2.06 2.103-5.345 2.128-7.408.022-1-1.022-1.527-2.346-1.527-3.788 0-.754.142-1.458.426-2.11.883-2.03 2.641-3.287 4.837-3.287zm0-4.178c-5.246 0-9.482 4.24-9.482 9.62 0 3.827 2.335 7.267 5.767 8.748 1.137.493 2.351.74 3.63.74 5.055 0 9.523-4.03 9.523-9.315 0-3.958-2.168-7.462-5.745-9.032a9.055 9.055 0 0 0-3.693-.761z" mask="url(#d)"/>
        </g>
        <path fill="#006496" d="M66.536 32.403v-8.726c7.52-.881 9.357 8.728 0 8.726zm0 16.597V37.036h.924C79.965 37.036 80.483 19 67.194 19c-.98 0-1.736.038-2.26.112-1.1.16-2.087.776-2.556 1.89-.252.614-.378 1.446-.378 2.496V49h4.536zM58 19h-4.277v21.454c0 .6-.06 1.163-.178 1.687-.12.525-.271.937-.456 1.237-.132.18-.27.33-.416.45-.145.12-.316.217-.515.292a2.898 2.898 0 0 1-.713.157c-.276.03-.626.06-1.049.09H50V49c.792-.03 1.452-.067 1.98-.112a9.55 9.55 0 0 0 1.366-.203c.383-.09.733-.217 1.044-.382.31-.165.626-.382.95-.652.963-.78 1.65-1.717 2.053-2.812.402-1.094.607-2.586.607-4.474V19z"/>
    </g>
</svg>
