<svg xmlns="http://www.w3.org/2000/svg" xmlns:xlink="http://www.w3.org/1999/xlink" width="23" height="22" viewBox="0 0 23 22">
    <defs>
        <path id="a" d="M0 .188h22.022v21.795H0z"/>
    </defs>
    <g fill-rule="evenodd">
        <g transform="translate(0 .036)">
            <mask id="b" fill="#fff">
                <use xlink:href="#a"/>
            </mask>
            <path d="M11.011 19.664c-4.78 0-8.668-3.848-8.668-8.578 0-4.73 3.889-8.579 8.668-8.579 4.78 0 8.669 3.848 8.669 8.579 0 4.73-3.89 8.578-8.669 8.578m0-19.476C4.94.188 0 5.077 0 11.086c0 6.008 4.94 10.897 11.011 10.897 6.072 0 11.011-4.889 11.011-10.897 0-6.01-4.94-10.898-11.01-10.898" mask="url(#b)"/>
        </g>
        <path d="M16.75 10.785H11.8V4.897A.902.902 0 0 0 10.895 4c-.501 0-.907.401-.907.897v6.785c0 .496.406.897.907.897h5.855c.5 0 .907-.401.907-.897a.902.902 0 0 0-.907-.897"/>
    </g>
</svg>
