<svg xmlns="http://www.w3.org/2000/svg" width="22" height="23" viewBox="0 0 22 23">
    <path fill-rule="evenodd" d="M16.52 11.846h3.812V8.154H16.52v3.692zm0 4.923h3.812v-4.077H16.52v4.077zm0 4.539h3.812v-3.693H16.52v3.693zM15.373 6.03a.394.394 0 0 1-.124-.29V2.028c0-.112.041-.209.124-.29a.403.403 0 0 1 .293-.123h.834c.113 0 .21.041.293.123a.394.394 0 0 1 .124.29V5.74a.395.395 0 0 1-.124.29.403.403 0 0 1-.293.123h-.834a.402.402 0 0 1-.293-.123zm-3.936 5.815h4.21V8.154h-4.21v3.692zm0 4.923h4.21v-4.077h-4.21v4.077zm0 4.539h4.21v-3.693h-4.21v3.693zm-5.083-9.462h4.21V8.154h-4.21v3.692zm0 4.923h4.21v-4.077h-4.21v4.077zm0 4.539h4.21v-3.693h-4.21v3.693zM5.207 6.03a.394.394 0 0 1-.124-.29V2.028c0-.112.041-.209.124-.29a.402.402 0 0 1 .293-.123h.834c.113 0 .21.041.293.123a.394.394 0 0 1 .124.29V5.74a.395.395 0 0 1-.124.29.402.402 0 0 1-.293.123H5.5a.403.403 0 0 1-.293-.123zm-3.54 5.815H5.48V8.154H1.668v3.692zm0 4.923H5.48v-4.077H1.668v4.077zm0 4.539H5.48v-3.693H1.668v3.693zm19.83-17.534a1.65 1.65 0 0 0-1.189-.488h-1.692V2.054a1.95 1.95 0 0 0-.622-1.45A2.069 2.069 0 0 0 16.5 0h-.846c-.582 0-1.08.201-1.494.603a1.949 1.949 0 0 0-.621 1.45v1.233H8.462V2.054c0-.565-.207-1.048-.622-1.45A2.068 2.068 0 0 0 6.346 0H5.5c-.582 0-1.08.201-1.494.603a1.95 1.95 0 0 0-.621 1.45v1.233H1.692a1.65 1.65 0 0 0-1.19.488C.167 4.099 0 4.484 0 4.929v16.428c0 .445.167.83.502 1.155a1.65 1.65 0 0 0 1.19.488h18.616a1.65 1.65 0 0 0 1.19-.488c.334-.325.502-.71.502-1.155V4.93c0-.445-.167-.83-.502-1.155z"/>
</svg>
