<svg xmlns="http://www.w3.org/2000/svg" xmlns:xlink="http://www.w3.org/1999/xlink" width="23" height="22" viewBox="0 0 23 22">
    <defs>
        <path id="a" d="M0 .079h13.27v16.19H0z"/>
        <path id="c" d="M.43.396h13.68v3.87H.43z"/>
    </defs>
    <g fill="none" fill-rule="evenodd">
        <path d="M20.923 5.4l-.342.102-1.821.151-.515.765-.373-.11-1.45-1.218-.21-.633-.282-.675-.911-.761-1.075-.196-.025.458 1.053.957.516.566-.58.282-.471-.13-.707-.274.024-.531-.927-.355-.308 1.248-.934.197.092.696 1.218.218.21-1.112 1.005.138.467.255h.75l.513.957L17.2 7.68l-.1.5-1.096-.13-1.895.891-1.365 1.525-.177.675h-.49l-.913-.392-.886.392.22.87.386-.413.678-.02-.047.783.562.152.56.587.917-.24 1.047.154 1.215.305.607.066 1.029 1.088 1.986 1.088-1.285 2.286-1.355.587-.515 1.306-1.962 1.22-.208.704c5.015-1.126 8.746-5.321 8.746-10.34a10.095 10.095 0 0 0-1.936-5.923"/>
        <g transform="translate(0 5.705)">
            <mask id="b" fill="#fff">
                <use xlink:href="#a"/>
            </mask>
            <path d="M12.743 11.185l-.832-1.438.764-1.483-.764-.213-.858-.802-1.901-.397-.631-1.23v.73h-.278L6.605 4.283v-1.7L5.405.766l-1.908.317H2.213L1.567.687 2.391.08 1.57.256C.578 1.832 0 3.662 0 5.62c0 5.88 5.117 10.647 11.429 10.647.486 0 .963-.04 1.434-.093l-.119-1.29s.525-1.915.525-1.98c0-.066-.526-1.72-.526-1.72" mask="url(#b)"/>
        </g>
        <g transform="translate(2.183 .282)">
            <mask id="d" fill="#fff">
                <use xlink:href="#c"/>
            </mask>
            <path d="M6.271 1.542l.515.2.675-.2.367.593-1.557.381-.749-.408s.732-.44.749-.566zm3.457-.087l1.167-.599.75.403-1.085.77-1.036.097-.466-.282.67-.39zM2.064 3.829l2.03-.264.936-.478 1.053.283 1.683-.087.576-.844.84.13 2.042-.179.563-.578.793-.493 1.122.157.408-.057A12.087 12.087 0 0 0 9.245.396c-3.547 0-6.72 1.506-8.814 3.87h.006l1.627-.437z" mask="url(#d)"/>
        </g>
    </g>
</svg>
